<svg width="24" height="25" viewBox="0 0 24 25" fill="none" xmlns="http://www.w3.org/2000/svg">
<g clip-path="url(#clip0_110_2248)">
<path d="M19.0769 13.084L21.8189 13.084C22.1974 13.084 22.5044 12.7771 22.5044 12.3985L22.5044 1.43079C22.5044 1.05224 22.1975 0.745291 21.8189 0.745291L19.077 0.74529C18.6984 0.74529 18.3915 1.05219 18.3915 1.43079L18.3915 12.3985C18.3915 12.7771 18.6983 13.084 19.0769 13.084Z" fill="white"/>
<path d="M1.95353 11.267C2.07444 12.3304 3.06776 13.0841 4.13797 13.0841L9.48221 13.0841C9.02803 13.8974 8.78425 16.1976 8.79506 17.1372C8.81299 18.6926 10.101 19.939 11.6564 19.939L12.2221 19.939C12.6009 19.939 12.9076 19.6324 12.9076 19.2535C12.9076 17.6683 13.5248 14.8072 14.6889 13.6431C15.4724 12.8595 16.1422 12.5756 17.0205 12.1367L17.0205 1.85103C15.6758 1.40283 13.9685 0.745374 11.3662 0.745374L6.88208 0.745374C5.40458 0.745374 4.25387 2.11378 4.8264 3.55958C3.95412 3.79721 3.31085 4.59719 3.31085 5.54376C3.31085 5.81089 3.36239 6.06657 3.45544 6.30155C1.9855 6.70205 1.44444 8.51706 2.46467 9.65669C2.08986 10.0754 1.88316 10.6482 1.95353 11.267Z" fill="white"/>
</g>
<defs>
<clipPath id="clip0_110_2248">
<rect width="23.3519" height="23.3519" fill="white" transform="translate(23.8979 24.0972) rotate(-180)"/>
</clipPath>
</defs>
</svg>
