<svg width="24" height="25" viewBox="0 0 24 25" fill="none" xmlns="http://www.w3.org/2000/svg">
<g clip-path="url(#clip0_110_2257)">
<path d="M4.97386 11.791H2.23189C1.85334 11.791 1.54639 12.0979 1.54639 12.4765V23.4442C1.54639 23.8228 1.85329 24.1297 2.23189 24.1297H4.97381C5.35237 24.1297 5.65932 23.8228 5.65932 23.4442V12.4765C5.65932 12.0979 5.35246 11.791 4.97386 11.791Z" fill="white"/>
<path d="M22.0973 13.6079C21.9763 12.5446 20.983 11.7909 19.9128 11.7909H14.5686C15.0227 10.9776 15.2665 8.67743 15.2557 7.7378C15.2378 6.18244 13.9498 4.93604 12.3943 4.93604H11.8287C11.4498 4.93604 11.1432 5.24262 11.1432 5.62154C11.1432 7.20668 10.526 10.0678 9.3619 11.2319C8.57838 12.0155 7.90857 12.2994 7.03027 12.7383V23.024C8.37496 23.4722 10.0823 24.1296 12.6846 24.1296H17.1687C18.6462 24.1296 19.7969 22.7612 19.2244 21.3154C20.0967 21.0778 20.7399 20.2778 20.7399 19.3312C20.7399 19.0641 20.6884 18.8084 20.5953 18.5734C22.0653 18.173 22.6063 16.3579 21.5861 15.2183C21.9609 14.7996 22.1676 14.2268 22.0973 13.6079Z" fill="white"/>
</g>
<defs>
<clipPath id="clip0_110_2257">
<rect width="23.3519" height="23.3519" fill="white" transform="translate(0.152832 0.777832)"/>
</clipPath>
</defs>
</svg>
